<svg id="google-fill" xmlns="http://www.w3.org/2000/svg" width="22.048" height="22.048" viewBox="0 0 22.048 22.048">
  <path id="Path_1274" data-name="Path 1274" d="M0,0H22.048V22.048H0Z" fill="none"/>
  <path id="Path_1275" data-name="Path 1275" d="M2.977,7.062A9.183,9.183,0,0,1,11.187,2a8.821,8.821,0,0,1,6.146,2.393L14.7,7.028a4.965,4.965,0,0,0-3.512-1.374,5.519,5.519,0,0,0-5.14,7.279,5.541,5.541,0,0,0,8.251,2.91,4.226,4.226,0,0,0,1.834-2.773H11.187V9.517h8.652a10.563,10.563,0,0,1,.167,1.879,8.954,8.954,0,0,1-2.74,6.752,8.766,8.766,0,0,1-6.08,2.226A9.188,9.188,0,0,1,2.977,7.062Z" transform="translate(-0.163 -0.163)" fill="#e93d46"/>
</svg>
